Coordinates
version=1
nRows=8
nColumns=63
inDegrees=yes

Units are S.I. units (second, meters, Newtons, ...)
If the header above contains a line with 'inDegrees', this indicates whether rotational values are in degrees (yes) or radians (no).

endheader
time	pelvis_tilt	pelvis_list	pelvis_rotation	pelvis_tx	pelvis_ty	pelvis_tz	hip_flexion_r	hip_adduction_r	hip_rotation_r	knee_angle_r	knee_angle_r_beta	ankle_angle_r	subtalar_angle_r	mtp_angle_r	hip_flexion_l	hip_adduction_l	hip_rotation_l	knee_angle_l	knee_angle_l_beta	ankle_angle_l	subtalar_angle_l	mtp_angle_l	L5_S1_Flex_Ext	L5_S1_Lat_Bending	L5_S1_axial_rotation	L4_L5_Flex_Ext	L4_L5_Lat_Bending	L4_L5_axial_rotation	L3_L4_Flex_Ext	L3_L4_Lat_Bending	L3_L4_axial_rotation	L2_L3_Flex_Ext	L2_L3_Lat_Bending	L2_L3_axial_rotation	L1_L2_Flex_Ext	L1_L2_Lat_Bending	L1_L2_axial_rotation	L1_T12_Flex_Ext	L1_T12_Lat_Bending	L1_T12_axial_rotation	Abs_r3	Abs_r2	Abs_r1	Abs_t1	Abs_t2	neck_flexion	neck_bending	neck_rotation	arm_flex_r	arm_add_r	arm_rot_r	elbow_flex_r	pro_sup_r	wrist_flex_r	wrist_dev_r	arm_flex_l	arm_add_l	arm_rot_l	elbow_flex_l	pro_sup_l	wrist_flex_l	wrist_dev_l
1.804878	-8.460016	0.775522	93.363648	0.165160	0.919687	0.688373	-2.838344	-6.769613	-15.718644	13.753861	0.240050	33.460000	9.108034	0.000000	-6.046989	5.788906	12.664959	3.980175	0.069467	23.031969	-9.581566	0.000000	-0.391929	0.328034	-0.376225	-0.727852	0.436285	-0.399739	-0.643901	0.797581	-0.399739	-0.447936	0.797581	-0.329196	-0.363946	0.668926	-0.305682	-0.223948	0.508124	-0.282168	-2.799512	3.710783	-2.092448	0.000000	0.000000	11.740016	-0.594476	-1.931907	0.795611	-16.882523	29.944886	30.747752	85.004837	-12.509529	3.221173	14.638148	-4.136133	183.329339	0.707488	6.803005	0.077760	-6.233949
1.829268	-8.368200	0.791202	93.526234	0.165439	0.919735	0.687564	-2.982496	-6.605219	-15.861672	13.630451	0.237896	33.522712	9.091847	0.000000	-6.123804	5.640268	12.807175	3.950014	0.068941	23.275906	-9.250975	0.000000	-0.367648	0.304159	-0.374672	-0.682758	0.404531	-0.398089	-0.604008	0.739531	-0.398089	-0.420184	0.739531	-0.327838	-0.341398	0.620240	-0.304421	-0.210074	0.471142	-0.281004	-2.626070	3.440703	-2.083812	0.000000	0.000000	12.440866	-0.963193	-1.891055	0.652973	-16.798302	30.410226	30.583614	84.926333	-12.462635	3.047737	14.473536	-4.257347	183.694078	0.690767	6.932697	0.157798	-6.396554
1.853659	-8.253076	0.793676	93.747993	0.165793	0.919827	0.686670	-3.131711	-6.406305	-16.069609	13.514589	0.235874	33.554407	9.082347	0.000000	-6.197196	5.454513	13.051281	3.910804	0.068256	23.431576	-9.049086	0.000000	-0.338798	0.274407	-0.380383	-0.629182	0.364962	-0.404157	-0.556611	0.667194	-0.404157	-0.387212	0.667194	-0.332835	-0.314608	0.559571	-0.309061	-0.193589	0.425057	-0.285287	-2.420001	3.104149	-2.115576	0.000000	0.000000	13.181304	-1.247767	-1.841323	0.498477	-16.730740	30.716207	30.500891	84.888345	-12.121200	3.052308	14.315071	-4.431090	184.192794	0.662736	6.771892	0.080430	-6.540879
1.878049	-8.116096	0.782417	94.031467	0.166172	0.919956	0.685786	-3.276133	-6.188451	-16.411725	13.424889	0.234309	33.556334	9.160840	0.000000	-6.249010	5.235651	13.319598	3.878668	0.067696	23.540916	-8.866661	0.000000	-0.308016	0.239696	-0.392712	-0.572017	0.318795	-0.417257	-0.506040	0.582796	-0.417257	-0.352032	0.582796	-0.343623	-0.286024	0.488787	-0.319079	-0.176000	0.371289	-0.294534	-2.200129	2.711485	-2.184147	0.000000	0.000000	13.900609	-1.406590	-1.757069	0.332162	-16.678482	30.864776	30.467975	84.904556	-11.521821	3.153905	14.177905	-4.635778	184.519351	0.625915	6.938209	-0.151468	-6.669226
1.902439	-7.969919	0.755055	94.351400	0.166575	0.920072	0.684956	-3.406238	-5.969843	-16.869115	13.367465	0.233306	33.525145	9.331614	0.000000	-6.276979	5.002680	13.594426	3.840869	0.067036	23.612945	-8.723818	0.000000	-0.277554	0.200706	-0.407477	-0.515445	0.266939	-0.432944	-0.455993	0.487997	-0.432944	-0.317216	0.487997	-0.356542	-0.257736	0.409280	-0.331075	-0.158594	0.310894	-0.305608	-1.982539	2.270429	-2.266264	0.000000	0.000000	14.550337	-1.438735	-1.588049	0.194784	-16.629114	31.115881	30.368954	84.977090	-10.751428	3.236848	14.061830	-4.846781	184.830891	0.584667	7.604100	-0.506720	-6.726997
1.926829	-7.825774	0.710653	94.702967	0.166970	0.920130	0.684276	-3.511795	-5.766827	-17.441086	13.353017	0.233054	33.477560	9.596275	0.000000	-6.273284	4.768694	13.862172	3.801659	0.066351	23.666286	-8.590749	0.000000	-0.251140	0.158447	-0.428217	-0.466392	0.210735	-0.454980	-0.412598	0.385248	-0.454980	-0.287028	0.385248	-0.374690	-0.233209	0.323105	-0.347926	-0.143501	0.245435	-0.321163	-1.793868	1.792386	-2.381613	0.000000	0.000000	15.122808	-1.399880	-1.336950	0.211728	-16.584829	31.898017	30.066973	85.106031	-9.833924	3.286666	13.972554	-5.042932	185.266237	0.540469	8.922658	-0.955008	-6.672088
1.951220	-7.723614	0.656929	95.020209	0.167501	0.920111	0.683725	-3.581753	-5.612401	-17.965901	13.393404	0.233759	33.421761	9.833747	0.000000	-6.245161	4.578537	14.039183	3.780370	0.065980	23.700803	-8.437337	0.000000	-0.229724	0.108877	-0.455482	-0.426621	0.144807	-0.483950	-0.377414	0.264724	-0.483950	-0.262552	0.264724	-0.398547	-0.213322	0.222022	-0.370079	-0.131264	0.168651	-0.341611	-1.640898	1.231640	-2.533254	0.000000	0.000000	15.521432	-1.188366	-0.845454	0.501312	-16.585118	33.557474	29.437044	85.303639	-9.009671	3.171339	13.894796	-5.240579	185.821982	0.500747	10.806982	-1.330958	-6.323351
1.975610	-7.665679	0.580827	95.318951	0.168147	0.919995	0.683346	-3.604537	-5.511924	-18.488837	13.481417	0.235295	33.379078	10.084208	0.000000	-6.176151	4.436262	14.208463	3.786747	0.066091	23.703958	-8.352378	0.000000	-0.213575	0.051973	-0.490992	-0.396629	0.069125	-0.521679	-0.350882	0.126368	-0.521679	-0.244094	0.126368	-0.429618	-0.198325	0.105984	-0.398931	-0.122037	0.080507	-0.368244	-1.525542	0.587933	-2.730750	0.000000	0.000000	15.776377	-0.842988	-0.233405	0.967150	-16.631067	35.485566	28.588972	85.608292	-8.164780	3.044971	13.868504	-5.443736	186.591682	0.467589	13.206722	-1.634852	-5.524071
